<?xml version="1.0" encoding="UTF-8"?>
<svg xmlns="http://www.w3.org/2000/svg" viewBox="0 0 1200 675" width="1200" height="675" font-family="'Noto Sans SC','Microsoft YaHei','PingFang SC',sans-serif">
  <defs>
    <linearGradient id="bg" x1="0" y1="0" x2="1" y2="1">
      <stop offset="0" stop-color="#2d3436"/>
      <stop offset="1" stop-color="#636e72"/>
    </linearGradient>
    <radialGradient id="glow" cx="70%" cy="30%" r="70%">
      <stop offset="0" stop-color="rgba(255,255,255,0.22)"/>
      <stop offset="1" stop-color="rgba(255,255,255,0)"/>
    </radialGradient>
    <!-- 噪点纹理 -->
    <filter id="noise">
      <feTurbulence type="fractalNoise" baseFrequency="0.85" numOctaves="2" stitchTiles="stitch"/>
      <feColorMatrix values="0 0 0 0 1  0 0 0 0 1  0 0 0 0 1  0 0 0 0.06 0"/>
    </filter>
  </defs>

  <!-- 背景层 -->
  <rect width="1200" height="675" fill="url(#bg)"/>
  <rect width="1200" height="675" fill="url(#glow)"/>
  <rect width="1200" height="675" filter="url(#noise)" opacity="0.5"/>

  <!-- 装饰圆斑 -->
  <circle cx="1080" cy="80" r="180" fill="rgba(255,255,255,0.07)"/>
  <circle cx="120" cy="600" r="140" fill="rgba(255,255,255,0.05)"/>
  <circle cx="60" cy="120" r="60" fill="rgba(255,255,255,0.08)"/>

  <!-- 左上点阵装饰 -->
  <g fill="rgba(255,255,255,0.14)">
    <circle cx="50" cy="80" r="3"/><circle cx="78" cy="80" r="3"/><circle cx="106" cy="80" r="3"/>
    <circle cx="50" cy="108" r="3"/><circle cx="78" cy="108" r="3"/>
    <circle cx="50" cy="136" r="3"/>
  </g>

  <!-- 右上主题装饰图形 -->
  
  <!-- 大积分号 -->
  <text x="900" y="280" font-size="200" fill="rgba(255,255,255,0.92)" font-family="serif" font-style="italic" font-weight="400">∫</text>
  <!-- 积分上下限 -->
  <text x="935" y="130" font-size="22" fill="rgba(255,255,255,0.85)" font-family="serif">∞</text>
  <text x="935" y="300" font-size="22" fill="rgba(255,255,255,0.85)" font-family="serif">0</text>
  <!-- 被积函数 -->
  <text x="955" y="200" font-size="38" fill="#fff" font-family="serif" font-style="italic">f(x)dx</text>
  <!-- 函数曲线 -->
  <path d="M 830 330 Q 920 240 1010 300 T 1080 270" fill="none" stroke="rgba(255,255,255,0.6)" stroke-width="2.5" stroke-dasharray="6 4"/>
  <!-- 坐标轴 -->
  <line x1="830" y1="340" x2="1080" y2="340" stroke="rgba(255,255,255,0.4)" stroke-width="1.5"/>
  <line x1="830" y1="120" x2="830" y2="340" stroke="rgba(255,255,255,0.4)" stroke-width="1.5"/>
  

  <!-- 底部品牌区 -->
  <text x="80" y="610" font-size="22" fill="rgba(255,255,255,0.75)" font-family="'Noto Serif SC',serif">🌸 Sakiko の博客</text>

  <!-- 标题区（左下） -->
  <g transform="translate(80 460)">
    <!-- 标题前竖线装饰 -->
    <rect x="0" y="-30" width="5" height="110" rx="2" fill="rgba(255,255,255,0.85)"/>
    <text x="22" y="10" font-size="46" font-weight="700" fill="#ffffff" style="text-shadow: 0 2px 12px rgba(0,0,0,0.3);">专插本《高等数学》真题回忆版+详解</text>
    <text x="22" y="55" font-size="22" fill="rgba(255,255,255,0.88)" font-family="'Noto Serif SC',serif">专插本 · 高等数学 · 真题</text>
  </g>
</svg>
