<?xml version="1.0" encoding="UTF-8"?>
<svg xmlns="http://www.w3.org/2000/svg" viewBox="0 0 1200 675" width="1200" height="675" font-family="'Noto Sans SC','Microsoft YaHei','PingFang SC',sans-serif">
  <defs>
    <linearGradient id="bg" x1="0" y1="0" x2="1" y2="1">
      <stop offset="0" stop-color="#0984e3"/>
      <stop offset="1" stop-color="#5f27cd"/>
    </linearGradient>
    <radialGradient id="glow" cx="70%" cy="30%" r="70%">
      <stop offset="0" stop-color="rgba(255,255,255,0.22)"/>
      <stop offset="1" stop-color="rgba(255,255,255,0)"/>
    </radialGradient>
    <!-- 噪点纹理 -->
    <filter id="noise">
      <feTurbulence type="fractalNoise" baseFrequency="0.85" numOctaves="2" stitchTiles="stitch"/>
      <feColorMatrix values="0 0 0 0 1  0 0 0 0 1  0 0 0 0 1  0 0 0 0.06 0"/>
    </filter>
  </defs>

  <!-- 背景层 -->
  <rect width="1200" height="675" fill="url(#bg)"/>
  <rect width="1200" height="675" fill="url(#glow)"/>
  <rect width="1200" height="675" filter="url(#noise)" opacity="0.5"/>

  <!-- 装饰圆斑 -->
  <circle cx="1080" cy="80" r="180" fill="rgba(255,255,255,0.07)"/>
  <circle cx="120" cy="600" r="140" fill="rgba(255,255,255,0.05)"/>
  <circle cx="60" cy="120" r="60" fill="rgba(255,255,255,0.08)"/>

  <!-- 左上点阵装饰 -->
  <g fill="rgba(255,255,255,0.14)">
    <circle cx="50" cy="80" r="3"/><circle cx="78" cy="80" r="3"/><circle cx="106" cy="80" r="3"/>
    <circle cx="50" cy="108" r="3"/><circle cx="78" cy="108" r="3"/>
    <circle cx="50" cy="136" r="3"/>
  </g>

  <!-- 右上主题装饰图形 -->
  
  <g transform="translate(810 110)">
    <rect width="270" height="210" rx="10" fill="rgba(0,0,0,0.4)" stroke="rgba(255,255,255,0.3)" stroke-width="2"/>
    <!-- 顶栏 -->
    <rect width="270" height="36" rx="10" fill="rgba(255,255,255,0.1)"/>
    <rect y="26" width="270" height="10" fill="rgba(255,255,255,0.1)"/>
    <circle cx="22" cy="18" r="6" fill="#ff5f56"/>
    <circle cx="42" cy="18" r="6" fill="#ffbd2e"/>
    <circle cx="62" cy="18" r="6" fill="#27c93f"/>
    <text x="135" y="23" font-size="13" fill="rgba(255,255,255,0.6)" font-family="'Fira Code',monospace" text-anchor="middle">exam_2024.c</text>
    <!-- 代码行 -->
    <text x="20" y="68" font-size="14" fill="#7fcdff" font-family="'Fira Code',monospace">int</text>
    <text x="50" y="68" font-size="14" fill="#fff" font-family="'Fira Code',monospace">main() {</text>
    <text x="35" y="92" font-size="14" fill="#7fcdff" font-family="'Fira Code',monospace">int</text>
    <text x="65" y="92" font-size="14" fill="#fff" font-family="'Fira Code',monospace">n, sum = 0;</text>
    <text x="35" y="116" font-size="14" fill="#c792ea" font-family="'Fira Code',monospace">scanf</text>
    <text x="88" y="116" font-size="14" fill="#fff" font-family="'Fira Code',monospace">("%d", &amp;n);</text>
    <text x="35" y="140" font-size="14" fill="#c792ea" font-family="'Fira Code',monospace">for</text>
    <text x="68" y="140" font-size="14" fill="#fff" font-family="'Fira Code',monospace">(i=0; i&lt;n; i++)</text>
    <text x="50" y="164" font-size="14" fill="#fff" font-family="'Fira Code',monospace">sum += i;</text>
    <text x="35" y="188" font-size="14" fill="#c792ea" font-family="'Fira Code',monospace">printf</text>
    <text x="90" y="188" font-size="14" fill="#fff" font-family="'Fira Code',monospace">("%d", sum);</text>
    <text x="20" y="208" font-size="14" fill="#fff" font-family="'Fira Code',monospace">}</text>
  </g>
  

  <!-- 底部品牌区 -->
  <text x="80" y="610" font-size="22" fill="rgba(255,255,255,0.75)" font-family="'Noto Serif SC',serif">🌸 Sakiko の博客</text>

  <!-- 标题区（左下） -->
  <g transform="translate(80 460)">
    <!-- 标题前竖线装饰 -->
    <rect x="0" y="-30" width="5" height="110" rx="2" fill="rgba(255,255,255,0.85)"/>
    <text x="22" y="10" font-size="46" font-weight="700" fill="#ffffff" style="text-shadow: 0 2px 12px rgba(0,0,0,0.3);">专插本《计算机基础与程序设计》真题</text>
    <text x="22" y="55" font-size="22" fill="rgba(255,255,255,0.88)" font-family="'Noto Serif SC',serif">专插本 · C语言 · 真题</text>
  </g>
</svg>
