<?xml version="1.0" encoding="UTF-8"?>
<svg xmlns="http://www.w3.org/2000/svg" viewBox="0 0 1200 675" width="1200" height="675" font-family="'Noto Sans SC','Microsoft YaHei','PingFang SC',sans-serif">
  <defs>
    <linearGradient id="bg" x1="0" y1="0" x2="1" y2="1">
      <stop offset="0" stop-color="#f39c12"/>
      <stop offset="1" stop-color="#e74c3c"/>
    </linearGradient>
    <radialGradient id="glow" cx="70%" cy="30%" r="70%">
      <stop offset="0" stop-color="rgba(255,255,255,0.22)"/>
      <stop offset="1" stop-color="rgba(255,255,255,0)"/>
    </radialGradient>
    <!-- 噪点纹理 -->
    <filter id="noise">
      <feTurbulence type="fractalNoise" baseFrequency="0.85" numOctaves="2" stitchTiles="stitch"/>
      <feColorMatrix values="0 0 0 0 1  0 0 0 0 1  0 0 0 0 1  0 0 0 0.06 0"/>
    </filter>
  </defs>

  <!-- 背景层 -->
  <rect width="1200" height="675" fill="url(#bg)"/>
  <rect width="1200" height="675" fill="url(#glow)"/>
  <rect width="1200" height="675" filter="url(#noise)" opacity="0.5"/>

  <!-- 装饰圆斑 -->
  <circle cx="1080" cy="80" r="180" fill="rgba(255,255,255,0.07)"/>
  <circle cx="120" cy="600" r="140" fill="rgba(255,255,255,0.05)"/>
  <circle cx="60" cy="120" r="60" fill="rgba(255,255,255,0.08)"/>

  <!-- 左上点阵装饰 -->
  <g fill="rgba(255,255,255,0.14)">
    <circle cx="50" cy="80" r="3"/><circle cx="78" cy="80" r="3"/><circle cx="106" cy="80" r="3"/>
    <circle cx="50" cy="108" r="3"/><circle cx="78" cy="108" r="3"/>
    <circle cx="50" cy="136" r="3"/>
  </g>

  <!-- 右上主题装饰图形 -->
  
  <g stroke="rgba(255,255,255,0.85)" stroke-width="3.5" fill="none" stroke-linecap="round">
    <!-- main 分支 -->
    <line x1="840" y1="180" x2="1040" y2="180"/>
    <!-- feature 分支：从 main 分出再合回 -->
    <path d="M 900 180 Q 920 200 920 250 Q 920 290 940 290 Q 960 290 970 240 Q 975 210 990 190 Q 1000 182 1010 180"/>
  </g>
  <!-- 节点圆点 -->
  <g>
    <circle cx="840" cy="180" r="9" fill="#fff"/>
    <circle cx="900" cy="180" r="9" fill="#fff"/>
    <circle cx="970" cy="180" r="9" fill="#fff"/>
    <circle cx="1040" cy="180" r="9" fill="#fff"/>
    <circle cx="920" cy="250" r="9" fill="#ffd700"/>
    <circle cx="960" cy="290" r="9" fill="#ffd700"/>
  </g>
  <!-- 分支标签 -->
  <text x="920" y="330" font-size="20" fill="rgba(255,255,255,0.9)" font-family="'Fira Code',monospace" text-anchor="middle">feature</text>
  <text x="940" y="155" font-size="18" fill="rgba(255,255,255,0.85)" font-family="'Fira Code',monospace" text-anchor="middle">main</text>
  <!-- merge 标记 -->
  <text x="985" y="170" font-size="14" fill="#ffd700" font-family="'Fira Code',monospace" text-anchor="middle">merge</text>
  

  <!-- 底部品牌区 -->
  <text x="80" y="610" font-size="22" fill="rgba(255,255,255,0.75)" font-family="'Noto Serif SC',serif">🌸 Sakiko の博客</text>

  <!-- 标题区（左下） -->
  <g transform="translate(80 460)">
    <!-- 标题前竖线装饰 -->
    <rect x="0" y="-30" width="5" height="110" rx="2" fill="rgba(255,255,255,0.85)"/>
    <text x="22" y="10" font-size="46" font-weight="700" fill="#ffffff" style="text-shadow: 0 2px 12px rgba(0,0,0,0.3);">Git 入门与实用技巧</text>
    <text x="22" y="55" font-size="22" fill="rgba(255,255,255,0.88)" font-family="'Noto Serif SC',serif">教程 · Git</text>
  </g>
</svg>
