<?xml version="1.0" encoding="UTF-8"?>
<svg xmlns="http://www.w3.org/2000/svg" viewBox="0 0 1200 675" width="1200" height="675" font-family="'Noto Sans SC','Microsoft YaHei','PingFang SC',sans-serif">
  <defs>
    <linearGradient id="bg" x1="0" y1="0" x2="1" y2="1">
      <stop offset="0" stop-color="#6c5ce7"/>
      <stop offset="1" stop-color="#341f97"/>
    </linearGradient>
    <radialGradient id="glow" cx="70%" cy="30%" r="70%">
      <stop offset="0" stop-color="rgba(255,255,255,0.22)"/>
      <stop offset="1" stop-color="rgba(255,255,255,0)"/>
    </radialGradient>
    <!-- 噪点纹理 -->
    <filter id="noise">
      <feTurbulence type="fractalNoise" baseFrequency="0.85" numOctaves="2" stitchTiles="stitch"/>
      <feColorMatrix values="0 0 0 0 1  0 0 0 0 1  0 0 0 0 1  0 0 0 0.06 0"/>
    </filter>
  </defs>

  <!-- 背景层 -->
  <rect width="1200" height="675" fill="url(#bg)"/>
  <rect width="1200" height="675" fill="url(#glow)"/>
  <rect width="1200" height="675" filter="url(#noise)" opacity="0.5"/>

  <!-- 装饰圆斑 -->
  <circle cx="1080" cy="80" r="180" fill="rgba(255,255,255,0.07)"/>
  <circle cx="120" cy="600" r="140" fill="rgba(255,255,255,0.05)"/>
  <circle cx="60" cy="120" r="60" fill="rgba(255,255,255,0.08)"/>

  <!-- 左上点阵装饰 -->
  <g fill="rgba(255,255,255,0.14)">
    <circle cx="50" cy="80" r="3"/><circle cx="78" cy="80" r="3"/><circle cx="106" cy="80" r="3"/>
    <circle cx="50" cy="108" r="3"/><circle cx="78" cy="108" r="3"/>
    <circle cx="50" cy="136" r="3"/>
  </g>

  <!-- 右上主题装饰图形 -->
  
  <text x="920" y="105" font-size="20" fill="rgba(255,255,255,0.7)" font-family="'Fira Code',monospace" text-anchor="middle">hash(key) % N</text>
  <rect x="830" y="130" width="70" height="32" rx="4" fill="rgba(255,255,255,0.18)" stroke="rgba(255,255,255,0.55)" stroke-width="1.5"/>
            <text x="865" y="152" font-size="16" fill="rgba(255,255,255,0.9)" font-family="'Fira Code',monospace" text-anchor="middle">0</text>
  <rect x="830" y="172" width="70" height="32" rx="4" fill="rgba(255,255,255,0.18)" stroke="rgba(255,255,255,0.55)" stroke-width="1.5"/>
            <text x="865" y="194" font-size="16" fill="rgba(255,255,255,0.9)" font-family="'Fira Code',monospace" text-anchor="middle">1</text>
  <rect x="830" y="214" width="70" height="32" rx="4" fill="rgba(255,255,255,0.18)" stroke="rgba(255,255,255,0.55)" stroke-width="1.5"/>
            <text x="865" y="236" font-size="16" fill="rgba(255,255,255,0.9)" font-family="'Fira Code',monospace" text-anchor="middle">2</text>
  <rect x="830" y="256" width="70" height="32" rx="4" fill="rgba(255,255,255,0.18)" stroke="rgba(255,255,255,0.55)" stroke-width="1.5"/>
            <text x="865" y="278" font-size="16" fill="rgba(255,255,255,0.9)" font-family="'Fira Code',monospace" text-anchor="middle">3</text>
  <rect x="830" y="298" width="70" height="32" rx="4" fill="rgba(255,255,255,0.18)" stroke="rgba(255,255,255,0.55)" stroke-width="1.5"/>
            <text x="865" y="320" font-size="16" fill="rgba(255,255,255,0.9)" font-family="'Fira Code',monospace" text-anchor="middle">4</text>
  
    <line x1="900" y1="172" x2="940" y2="172" stroke="rgba(255,255,255,0.55)" stroke-width="1.5"/>
    <rect x="940" y="156" width="56" height="32" rx="4" fill="rgba(255,255,255,0.25)" stroke="rgba(255,255,255,0.7)" stroke-width="1.5"/>
    <text x="968" y="178" font-size="15" fill="#fff" font-family="'Fira Code',monospace" text-anchor="middle">v1</text>
    <line x1="996" y1="172" x2="1030" y2="172" stroke="rgba(255,255,255,0.55)" stroke-width="1.5"/>
    <rect x="1030" y="156" width="50" height="32" rx="4" fill="rgba(255,255,255,0.25)" stroke="rgba(255,255,255,0.7)" stroke-width="1.5"/>
    <text x="1055" y="178" font-size="15" fill="#fff" font-family="'Fira Code',monospace" text-anchor="middle">v2</text>
  
    <line x1="900" y1="256" x2="945" y2="256" stroke="rgba(255,255,255,0.55)" stroke-width="1.5"/>
    <rect x="945" y="240" width="56" height="32" rx="4" fill="rgba(255,255,255,0.25)" stroke="rgba(255,255,255,0.7)" stroke-width="1.5"/>
    <text x="973" y="262" font-size="15" fill="#fff" font-family="'Fira Code',monospace" text-anchor="middle">v3</text>
  

  <!-- 底部品牌区 -->
  <text x="80" y="610" font-size="22" fill="rgba(255,255,255,0.75)" font-family="'Noto Serif SC',serif">🌸 Sakiko の博客</text>

  <!-- 标题区（左下） -->
  <g transform="translate(80 460)">
    <!-- 标题前竖线装饰 -->
    <rect x="0" y="-30" width="5" height="110" rx="2" fill="rgba(255,255,255,0.85)"/>
    <text x="22" y="10" font-size="46" font-weight="700" fill="#ffffff" style="text-shadow: 0 2px 12px rgba(0,0,0,0.3);">C++ 哈希 Map 应用与竞赛技巧</text>
    <text x="22" y="55" font-size="22" fill="rgba(255,255,255,0.88)" font-family="'Noto Serif SC',serif">教程 · C++ · 算法</text>
  </g>
</svg>
