<?xml version="1.0" encoding="UTF-8"?>
<svg xmlns="http://www.w3.org/2000/svg" viewBox="0 0 1200 675" width="1200" height="675" font-family="'Noto Sans SC','Microsoft YaHei','PingFang SC',sans-serif">
  <defs>
    <linearGradient id="bg" x1="0" y1="0" x2="1" y2="1">
      <stop offset="0" stop-color="#ffb7c5"/>
      <stop offset="1" stop-color="#ffe4b5"/>
    </linearGradient>
    <radialGradient id="glow" cx="70%" cy="30%" r="70%">
      <stop offset="0" stop-color="rgba(255,255,255,0.22)"/>
      <stop offset="1" stop-color="rgba(255,255,255,0)"/>
    </radialGradient>
    <!-- 噪点纹理 -->
    <filter id="noise">
      <feTurbulence type="fractalNoise" baseFrequency="0.85" numOctaves="2" stitchTiles="stitch"/>
      <feColorMatrix values="0 0 0 0 1  0 0 0 0 1  0 0 0 0 1  0 0 0 0.06 0"/>
    </filter>
  </defs>

  <!-- 背景层 -->
  <rect width="1200" height="675" fill="url(#bg)"/>
  <rect width="1200" height="675" fill="url(#glow)"/>
  <rect width="1200" height="675" filter="url(#noise)" opacity="0.5"/>

  <!-- 装饰圆斑 -->
  <circle cx="1080" cy="80" r="180" fill="rgba(255,255,255,0.07)"/>
  <circle cx="120" cy="600" r="140" fill="rgba(255,255,255,0.05)"/>
  <circle cx="60" cy="120" r="60" fill="rgba(255,255,255,0.08)"/>

  <!-- 左上点阵装饰 -->
  <g fill="rgba(255,255,255,0.14)">
    <circle cx="50" cy="80" r="3"/><circle cx="78" cy="80" r="3"/><circle cx="106" cy="80" r="3"/>
    <circle cx="50" cy="108" r="3"/><circle cx="78" cy="108" r="3"/>
    <circle cx="50" cy="136" r="3"/>
  </g>

  <!-- 右上主题装饰图形 -->
  
  <!-- 地球：蓝绿圆 -->
  <circle cx="940" cy="220" r="95" fill="rgba(255,255,255,0.18)" stroke="rgba(255,255,255,0.5)" stroke-width="2"/>
  <!-- 经纬线 -->
  <ellipse cx="940" cy="220" rx="95" ry="38" fill="none" stroke="rgba(255,255,255,0.35)" stroke-width="1.5"/>
  <ellipse cx="940" cy="220" rx="95" ry="70" fill="none" stroke="rgba(255,255,255,0.25)" stroke-width="1.5"/>
  <line x1="845" y1="220" x2="1035" y2="220" stroke="rgba(255,255,255,0.35)" stroke-width="1.5"/>
  <line x1="940" y1="125" x2="940" y2="315" stroke="rgba(255,255,255,0.35)" stroke-width="1.5"/>
  <!-- 简化大陆 -->
  <path d="M 905 190 Q 925 175 950 185 Q 970 195 965 215 Q 945 225 920 220 Z" fill="rgba(255,255,255,0.35)"/>
  <path d="M 960 235 Q 985 240 990 260 Q 980 275 965 265 Z" fill="rgba(255,255,255,0.30)"/>
  <!-- 樱花花瓣环绕 -->
  <g transform="translate(820 130) rotate(-20) scale(0.8666666666666667)">
    <path d="M 0 -14 C 5 -12 7 -6 3 -2 C 6 0 7 3 2 4 C 4 7 1 11 -4 8 C -2 11 -7 11 -7 5 C -10 7 -13 3 -9 -1 C -13 -4 -10 -11 -5 -8 C -7 -12 -1 -14 0 -14 Z" fill="rgba(255,255,255,0.85)"/>
  </g>
  <g transform="translate(1050 160) rotate(35) scale(0.7333333333333333)">
    <path d="M 0 -14 C 5 -12 7 -6 3 -2 C 6 0 7 3 2 4 C 4 7 1 11 -4 8 C -2 11 -7 11 -7 5 C -10 7 -13 3 -9 -1 C -13 -4 -10 -11 -5 -8 C -7 -12 -1 -14 0 -14 Z" fill="rgba(255,255,255,0.85)"/>
  </g>
  <g transform="translate(840 320) rotate(60) scale(0.6666666666666666)">
    <path d="M 0 -14 C 5 -12 7 -6 3 -2 C 6 0 7 3 2 4 C 4 7 1 11 -4 8 C -2 11 -7 11 -7 5 C -10 7 -13 3 -9 -1 C -13 -4 -10 -11 -5 -8 C -7 -12 -1 -14 0 -14 Z" fill="rgba(255,255,255,0.85)"/>
  </g>
  <g transform="translate(1060 310) rotate(-10) scale(0.8)">
    <path d="M 0 -14 C 5 -12 7 -6 3 -2 C 6 0 7 3 2 4 C 4 7 1 11 -4 8 C -2 11 -7 11 -7 5 C -10 7 -13 3 -9 -1 C -13 -4 -10 -11 -5 -8 C -7 -12 -1 -14 0 -14 Z" fill="rgba(255,255,255,0.85)"/>
  </g>
  

  <!-- 底部品牌区 -->
  <text x="80" y="610" font-size="22" fill="rgba(255,255,255,0.75)" font-family="'Noto Serif SC',serif">🌸 Sakiko の博客</text>

  <!-- 标题区（左下） -->
  <g transform="translate(80 460)">
    <!-- 标题前竖线装饰 -->
    <rect x="0" y="-30" width="5" height="110" rx="2" fill="rgba(255,255,255,0.85)"/>
    <text x="22" y="10" font-size="46" font-weight="700" fill="#ffffff" style="text-shadow: 0 2px 12px rgba(0,0,0,0.3);">你好，世界</text>
    <text x="22" y="55" font-size="22" fill="rgba(255,255,255,0.88)" font-family="'Noto Serif SC',serif">博客开篇 · 生活</text>
  </g>
</svg>
