<?xml version="1.0" encoding="UTF-8"?>
<svg xmlns="http://www.w3.org/2000/svg" viewBox="0 0 1200 675" width="1200" height="675" font-family="'Noto Sans SC','Microsoft YaHei','PingFang SC',sans-serif">
  <defs>
    <linearGradient id="bg" x1="0" y1="0" x2="1" y2="1">
      <stop offset="0" stop-color="#e17055"/>
      <stop offset="1" stop-color="#fdcb6e"/>
    </linearGradient>
    <radialGradient id="glow" cx="70%" cy="30%" r="70%">
      <stop offset="0" stop-color="rgba(255,255,255,0.22)"/>
      <stop offset="1" stop-color="rgba(255,255,255,0)"/>
    </radialGradient>
    <!-- 噪点纹理 -->
    <filter id="noise">
      <feTurbulence type="fractalNoise" baseFrequency="0.85" numOctaves="2" stitchTiles="stitch"/>
      <feColorMatrix values="0 0 0 0 1  0 0 0 0 1  0 0 0 0 1  0 0 0 0.06 0"/>
    </filter>
  </defs>

  <!-- 背景层 -->
  <rect width="1200" height="675" fill="url(#bg)"/>
  <rect width="1200" height="675" fill="url(#glow)"/>
  <rect width="1200" height="675" filter="url(#noise)" opacity="0.5"/>

  <!-- 装饰圆斑 -->
  <circle cx="1080" cy="80" r="180" fill="rgba(255,255,255,0.07)"/>
  <circle cx="120" cy="600" r="140" fill="rgba(255,255,255,0.05)"/>
  <circle cx="60" cy="120" r="60" fill="rgba(255,255,255,0.08)"/>

  <!-- 左上点阵装饰 -->
  <g fill="rgba(255,255,255,0.14)">
    <circle cx="50" cy="80" r="3"/><circle cx="78" cy="80" r="3"/><circle cx="106" cy="80" r="3"/>
    <circle cx="50" cy="108" r="3"/><circle cx="78" cy="108" r="3"/>
    <circle cx="50" cy="136" r="3"/>
  </g>

  <!-- 右上主题装饰图形 -->
  
  <g transform="translate(870 160)">
    <!-- 蒸汽 -->
    <path d="M 40 -20 Q 50 -40 40 -60 Q 30 -80 40 -100" fill="none" stroke="rgba(255,255,255,0.55)" stroke-width="3" stroke-linecap="round"/>
    <path d="M 70 -20 Q 80 -45 70 -70 Q 60 -90 70 -110" fill="none" stroke="rgba(255,255,255,0.5)" stroke-width="3" stroke-linecap="round"/>
    <path d="M 100 -20 Q 110 -40 100 -60 Q 90 -80 100 -100" fill="none" stroke="rgba(255,255,255,0.45)" stroke-width="3" stroke-linecap="round"/>
    <!-- 杯身 -->
    <path d="M 10 0 L 130 0 L 120 110 Q 118 120 108 120 L 32 120 Q 22 120 20 110 Z" fill="rgba(255,255,255,0.92)" stroke="rgba(255,255,255,1)" stroke-width="2"/>
    <!-- 杯口咖啡液 -->
    <ellipse cx="70" cy="0" rx="60" ry="8" fill="#5d4037"/>
    <!-- 杯把 -->
    <path d="M 130 20 Q 165 20 165 55 Q 165 90 130 90" fill="none" stroke="rgba(255,255,255,0.92)" stroke-width="8" stroke-linecap="round"/>
    <!-- 杯身 Java 字样 -->
    <text x="70" y="75" font-size="32" font-weight="700" fill="#5d4037" font-family="'Noto Serif SC',serif" text-anchor="middle">Java</text>
  </g>
  

  <!-- 底部品牌区 -->
  <text x="80" y="610" font-size="22" fill="rgba(255,255,255,0.75)" font-family="'Noto Serif SC',serif">🌸 Sakiko の博客</text>

  <!-- 标题区（左下） -->
  <g transform="translate(80 460)">
    <!-- 标题前竖线装饰 -->
    <rect x="0" y="-30" width="5" height="110" rx="2" fill="rgba(255,255,255,0.85)"/>
    <text x="22" y="10" font-size="46" font-weight="700" fill="#ffffff" style="text-shadow: 0 2px 12px rgba(0,0,0,0.3);">Java 零基础入门教程</text>
    <text x="22" y="55" font-size="22" fill="rgba(255,255,255,0.88)" font-family="'Noto Serif SC',serif">教程 · Java · 入门</text>
  </g>
</svg>
