<?xml version="1.0" encoding="UTF-8"?>
<svg xmlns="http://www.w3.org/2000/svg" viewBox="0 0 1200 675" width="1200" height="675" font-family="'Noto Sans SC','Microsoft YaHei','PingFang SC',sans-serif">
  <defs>
    <linearGradient id="bg" x1="0" y1="0" x2="1" y2="1">
      <stop offset="0" stop-color="#2d3436"/>
      <stop offset="1" stop-color="#535c68"/>
    </linearGradient>
    <radialGradient id="glow" cx="70%" cy="30%" r="70%">
      <stop offset="0" stop-color="rgba(255,255,255,0.22)"/>
      <stop offset="1" stop-color="rgba(255,255,255,0)"/>
    </radialGradient>
    <!-- 噪点纹理 -->
    <filter id="noise">
      <feTurbulence type="fractalNoise" baseFrequency="0.85" numOctaves="2" stitchTiles="stitch"/>
      <feColorMatrix values="0 0 0 0 1  0 0 0 0 1  0 0 0 0 1  0 0 0 0.06 0"/>
    </filter>
  </defs>

  <!-- 背景层 -->
  <rect width="1200" height="675" fill="url(#bg)"/>
  <rect width="1200" height="675" fill="url(#glow)"/>
  <rect width="1200" height="675" filter="url(#noise)" opacity="0.5"/>

  <!-- 装饰圆斑 -->
  <circle cx="1080" cy="80" r="180" fill="rgba(255,255,255,0.07)"/>
  <circle cx="120" cy="600" r="140" fill="rgba(255,255,255,0.05)"/>
  <circle cx="60" cy="120" r="60" fill="rgba(255,255,255,0.08)"/>

  <!-- 左上点阵装饰 -->
  <g fill="rgba(255,255,255,0.14)">
    <circle cx="50" cy="80" r="3"/><circle cx="78" cy="80" r="3"/><circle cx="106" cy="80" r="3"/>
    <circle cx="50" cy="108" r="3"/><circle cx="78" cy="108" r="3"/>
    <circle cx="50" cy="136" r="3"/>
  </g>

  <!-- 右上主题装饰图形 -->
  
  <g transform="translate(810 110)">
    <rect width="260" height="200" rx="10" fill="rgba(0,0,0,0.35)" stroke="rgba(255,255,255,0.3)" stroke-width="2"/>
    <!-- 顶栏三个圆点 -->
    <circle cx="22" cy="22" r="7" fill="#ff5f56"/>
    <circle cx="44" cy="22" r="7" fill="#ffbd2e"/>
    <circle cx="66" cy="22" r="7" fill="#27c93f"/>
    <!-- 提示符 + 命令 -->
    <text x="20" y="70" font-size="18" fill="#27c93f" font-family="'Fira Code',monospace">$</text>
    <text x="42" y="70" font-size="18" fill="rgba(255,255,255,0.9)" font-family="'Fira Code',monospace">ls -la</text>
    <text x="20" y="100" font-size="15" fill="rgba(255,255,255,0.65)" font-family="'Fira Code',monospace">drwxr-xr-x  home/</text>
    <text x="20" y="125" font-size="15" fill="rgba(255,255,255,0.65)" font-family="'Fira Code',monospace">-rw-r--r--  .bashrc</text>
    <text x="20" y="150" font-size="15" fill="rgba(255,255,255,0.65)" font-family="'Fira Code',monospace">-rwxr-xr-x  script.sh</text>
    <text x="20" y="180" font-size="18" fill="#27c93f" font-family="'Fira Code',monospace">$</text>
    <rect x="42" y="166" width="10" height="18" fill="rgba(255,255,255,0.8)"/>
  </g>
  

  <!-- 底部品牌区 -->
  <text x="80" y="610" font-size="22" fill="rgba(255,255,255,0.75)" font-family="'Noto Serif SC',serif">🌸 Sakiko の博客</text>

  <!-- 标题区（左下） -->
  <g transform="translate(80 460)">
    <!-- 标题前竖线装饰 -->
    <rect x="0" y="-30" width="5" height="110" rx="2" fill="rgba(255,255,255,0.85)"/>
    <text x="22" y="10" font-size="46" font-weight="700" fill="#ffffff" style="text-shadow: 0 2px 12px rgba(0,0,0,0.3);">Linux 常用操作技巧</text>
    <text x="22" y="55" font-size="22" fill="rgba(255,255,255,0.88)" font-family="'Noto Serif SC',serif">教程 · Linux</text>
  </g>
</svg>
