<?xml version="1.0" encoding="UTF-8"?>
<svg xmlns="http://www.w3.org/2000/svg" viewBox="0 0 1200 675" width="1200" height="675" font-family="'Noto Sans SC','Microsoft YaHei','PingFang SC',sans-serif">
  <defs>
    <linearGradient id="bg" x1="0" y1="0" x2="1" y2="1">
      <stop offset="0" stop-color="#5f27cd"/>
      <stop offset="1" stop-color="#341f97"/>
    </linearGradient>
    <radialGradient id="glow" cx="70%" cy="30%" r="70%">
      <stop offset="0" stop-color="rgba(255,255,255,0.22)"/>
      <stop offset="1" stop-color="rgba(255,255,255,0)"/>
    </radialGradient>
    <!-- 噪点纹理 -->
    <filter id="noise">
      <feTurbulence type="fractalNoise" baseFrequency="0.85" numOctaves="2" stitchTiles="stitch"/>
      <feColorMatrix values="0 0 0 0 1  0 0 0 0 1  0 0 0 0 1  0 0 0 0.06 0"/>
    </filter>
  </defs>

  <!-- 背景层 -->
  <rect width="1200" height="675" fill="url(#bg)"/>
  <rect width="1200" height="675" fill="url(#glow)"/>
  <rect width="1200" height="675" filter="url(#noise)" opacity="0.5"/>

  <!-- 装饰圆斑 -->
  <circle cx="1080" cy="80" r="180" fill="rgba(255,255,255,0.07)"/>
  <circle cx="120" cy="600" r="140" fill="rgba(255,255,255,0.05)"/>
  <circle cx="60" cy="120" r="60" fill="rgba(255,255,255,0.08)"/>

  <!-- 左上点阵装饰 -->
  <g fill="rgba(255,255,255,0.14)">
    <circle cx="50" cy="80" r="3"/><circle cx="78" cy="80" r="3"/><circle cx="106" cy="80" r="3"/>
    <circle cx="50" cy="108" r="3"/><circle cx="78" cy="108" r="3"/>
    <circle cx="50" cy="136" r="3"/>
  </g>

  <!-- 右上主题装饰图形 -->
  
  <!-- 方括号 -->
  <path d="M 855 120 L 845 120 L 845 320 L 855 320" fill="none" stroke="rgba(255,255,255,0.85)" stroke-width="3" stroke-linecap="round"/>
  <path d="M 1065 120 L 1075 120 L 1075 320 L 1065 320" fill="none" stroke="rgba(255,255,255,0.85)" stroke-width="3" stroke-linecap="round"/>
  <rect x="870" y="130" width="56" height="56" rx="4" fill="rgba(255,255,255,0.18)" stroke="rgba(255,255,255,0.5)" stroke-width="1.5"/>
  <text x="898" y="166" font-size="20" fill="#fff" font-family="'Fira Code',monospace" text-anchor="middle" font-weight="700">1</text>
  <rect x="930" y="130" width="56" height="56" rx="4" fill="rgba(255,255,255,0.32999999999999996)" stroke="rgba(255,255,255,0.5)" stroke-width="1.5"/>
  <text x="958" y="166" font-size="20" fill="#fff" font-family="'Fira Code',monospace" text-anchor="middle" font-weight="700">2</text>
  <rect x="990" y="130" width="56" height="56" rx="4" fill="rgba(255,255,255,0.18)" stroke="rgba(255,255,255,0.5)" stroke-width="1.5"/>
  <text x="1018" y="166" font-size="20" fill="#fff" font-family="'Fira Code',monospace" text-anchor="middle" font-weight="700">3</text>
  <rect x="870" y="190" width="56" height="56" rx="4" fill="rgba(255,255,255,0.32999999999999996)" stroke="rgba(255,255,255,0.5)" stroke-width="1.5"/>
  <text x="898" y="226" font-size="20" fill="#fff" font-family="'Fira Code',monospace" text-anchor="middle" font-weight="700">4</text>
  <rect x="930" y="190" width="56" height="56" rx="4" fill="rgba(255,255,255,0.18)" stroke="rgba(255,255,255,0.5)" stroke-width="1.5"/>
  <text x="958" y="226" font-size="20" fill="#fff" font-family="'Fira Code',monospace" text-anchor="middle" font-weight="700">5</text>
  <rect x="990" y="190" width="56" height="56" rx="4" fill="rgba(255,255,255,0.32999999999999996)" stroke="rgba(255,255,255,0.5)" stroke-width="1.5"/>
  <text x="1018" y="226" font-size="20" fill="#fff" font-family="'Fira Code',monospace" text-anchor="middle" font-weight="700">6</text>
  <rect x="870" y="250" width="56" height="56" rx="4" fill="rgba(255,255,255,0.18)" stroke="rgba(255,255,255,0.5)" stroke-width="1.5"/>
  <text x="898" y="286" font-size="20" fill="#fff" font-family="'Fira Code',monospace" text-anchor="middle" font-weight="700">7</text>
  <rect x="930" y="250" width="56" height="56" rx="4" fill="rgba(255,255,255,0.32999999999999996)" stroke="rgba(255,255,255,0.5)" stroke-width="1.5"/>
  <text x="958" y="286" font-size="20" fill="#fff" font-family="'Fira Code',monospace" text-anchor="middle" font-weight="700">8</text>
  <rect x="990" y="250" width="56" height="56" rx="4" fill="rgba(255,255,255,0.18)" stroke="rgba(255,255,255,0.5)" stroke-width="1.5"/>
  <text x="1018" y="286" font-size="20" fill="#fff" font-family="'Fira Code',monospace" text-anchor="middle" font-weight="700">9</text>
  <!-- 特征值标注 -->
  <text x="960" y="355" font-size="16" fill="rgba(255,255,255,0.7)" font-family="'Fira Code',monospace" text-anchor="middle">λ₁ · λ₂ · λ₃</text>
  

  <!-- 底部品牌区 -->
  <text x="80" y="610" font-size="22" fill="rgba(255,255,255,0.75)" font-family="'Noto Serif SC',serif">🌸 Sakiko の博客</text>

  <!-- 标题区（左下） -->
  <g transform="translate(80 460)">
    <!-- 标题前竖线装饰 -->
    <rect x="0" y="-30" width="5" height="110" rx="2" fill="rgba(255,255,255,0.85)"/>
    <text x="22" y="10" font-size="46" font-weight="700" fill="#ffffff" style="text-shadow: 0 2px 12px rgba(0,0,0,0.3);">矩阵入门：从高斯消元到特征值</text>
    <text x="22" y="55" font-size="22" fill="rgba(255,255,255,0.88)" font-family="'Noto Serif SC',serif">教程 · 线性代数</text>
  </g>
</svg>
